<?xml version="1.0" encoding="UTF-8"?>
<svg id="Calque_2" data-name="Calque 2" xmlns="http://www.w3.org/2000/svg" viewBox="0 0 421.65 401.06">
  <defs>
    <style>
      .cls-1 {
        fill: #fff;
      }

      .cls-1, .cls-2 {
        stroke-width: 0px;
      }

      .cls-2 {
        fill: #feb600;
      }
    </style>
  </defs>
  <path class="cls-1" d="m81.52,125.36l120.83,48.39s6.3,1.68,11.4-.2,117.77-48.2,117.77-48.2l-125-26.82-125,26.82Z"/>
  <path class="cls-2" d="m141.43,160.86l-20.35,54.02c-.08.21-.17.41-.27.61-.78,1.53-4.22,9.34,4.7,13.68,9.92,4.83,74.57,33.8,74.57,33.8,0,0,6.97,3.76,16.09,0,9.12-3.76,73.5-33.53,73.5-33.53,0,0,9.66-3.76,6.44-12.61-2.58-7.1-16.39-42.35-21.75-56.01-1.16-2.97-4.55-4.38-7.48-3.12l-49.48,21.23c-8.32,4.17-15.22.92-16.55.21-.17-.09-.35-.18-.53-.25l-51.45-21.26c-2.94-1.22-6.31.24-7.44,3.23Z"/>
  <polygon class="cls-1" points="81.52 125.36 331.52 125.36 206.52 98.54 81.52 125.36"/>
  <path class="cls-1" d="m134.36,179.55l-17.32,43.23s-5.01,10.19,6.32,15.38c11.32,5.18,76.98,35.01,76.98,35.01,0,0,5.96,4.3,16.36.27,10.41-4.03,80.06-35.23,80.06-35.23,0,0,9.36-3.58,4.15-14.9-4.26-9.25-19.65-43.75-19.65-43.75l-62.56,25.24c-10.58,4.98-19.15.09-19.15.09l-65.19-25.33Z"/>
  <path class="cls-2" d="m211.11,116.32c0,2.42-1.95,4.38-4.37,4.38-1.98,0-3.66-1.31-4.19-3.12h-53.84c-1.91,3.19-5.41,5.34-9.41,5.34-6.05,0-10.96-4.92-10.96-10.97s4.91-10.97,10.96-10.97,10.97,4.92,10.97,10.97c0,1.02-.14,2.02-.41,2.95h52.75c.59-1.72,2.22-2.95,4.14-2.95,2.42,0,4.37,1.95,4.37,4.37Z"/>
</svg>